<svg id="Livello_1" data-name="Livello 1" xmlns="http://www.w3.org/2000/svg" viewBox="0 0 3000 3000"><defs><style>.cls-1{opacity:0.98;}.cls-2{fill:#ec673c;}.cls-3{fill:#111110;}</style></defs><g class="cls-1"><polygon class="cls-2" points="1072.09 1148.52 1307.91 1148.52 1252.42 1592.42 1099.83 1578.55 1072.09 1148.52"/><polygon class="cls-3" points="961.11 926.57 1072.09 926.57 1127.57 1550.8 1238.55 1550.8 1294.03 926.57 1405.01 926.57 1280.16 1814.37 1085.96 1814.37 961.11 926.57"/></g><polygon class="cls-2" points="2353.39 1243.17 2569.22 1459 2525.65 1728.28 2448.43 1767.88 2228.65 1700.56 2353.39 1243.17"/><g class="cls-1"><path class="cls-3" d="M2547.26,939.65l-89.54-14.59A144,144,0,0,0,2292.48,1044L2196,1636.05a144,144,0,0,0,118.91,165.23l89.54,14.6A144,144,0,0,0,2569.65,1697l96.52-592.08A144,144,0,0,0,2547.26,939.65Zm-285.78,747.1,61.18-239.3,110.86-433.74,121.41,19.79L2522.3,1480l-18,246.34Z"/></g><g class="cls-1"><path class="cls-3" d="M1797,1028.69l121.9-16.49,56.73,250.07,89.45-74-19-140.19a144,144,0,0,0-161.93-123.36l-89.9,12.16A144,144,0,0,0,1671,1098.78l80.39,594.49a144,144,0,0,0,162,123.36l89.9-12.16a144,144,0,0,0,123.36-161.93l-39.87-315.71-79.12,76.94,10.4,45,54.65,240.89-243.81,33-11.29-246.75Z"/></g><g class="cls-1"><path class="cls-3" d="M460.94,1025.61,583.3,1013l48.82,251.72,91.74-71.18L709.33,1052.8a144,144,0,0,0-158-128.4l-90.24,9.32a144,144,0,0,0-128.41,158l61.61,596.73a144,144,0,0,0,158,128.4l90.25-9.32a144,144,0,0,0,128.39-158l-29.89-316.81-81.51,74.41,9,45.34,47,242.49-244.72,25.27-3.51-247Z"/></g><g class="cls-1"><polygon class="cls-3" points="971.99 1814.37 865.99 1814.37 786.48 926.57 852.74 926.57 971.99 1814.37"/></g><g class="cls-1"><polygon class="cls-3" points="1662.6 1814.37 1556.6 1814.37 1477.1 926.57 1543.35 926.57 1662.6 1814.37"/></g><g class="cls-1"><path class="cls-2" d="M581.15,2001.72c0,30.47-18.35,56-55.25,56-36.23,0-53.74-25.32-53.74-55.8,0-31,19.21-55.92,55.36-55.92C561.47,1946,581.15,1969.5,581.15,2001.72Zm-76.44-.32c0,19.77,6.57,33.53,22.19,33.53,16.41,0,21.81-14.6,21.81-33,0-19.66-5.74-33.29-22.23-33.29C511.15,1968.69,504.71,1981.35,504.71,2001.4Zm54.61,37,28.92,19.49L572,2076.84l-37.77-25.77Z"/><path class="cls-2" d="M840.83,1948v66.21c0,15.44,7.6,20.72,17.17,20.72,10.36,0,16.37-6.32,16.37-20.72V1948h31.71v63c0,35.8-21.17,46.67-48.62,46.67-28.44,0-48.23-11.52-48.23-46.52V1948Z"/><path class="cls-2" d="M1164,2034.72l-6.23,21H1127L1161,1948h40.86l35.39,107.71h-33l-6.54-21Zm28.27-23.39c-5.06-16.93-9.2-32-11.64-42.48h-.43c-2.5,11.61-6.61,27-11,42.48Z"/><path class="cls-2" d="M1471.23,1971.35h-30.79V1948h92.91v23.39h-30.52v84.32h-31.6Z"/><path class="cls-2" d="M1786.09,1971.35H1755.3V1948h92.92v23.39h-30.53v84.32h-31.6Z"/><path class="cls-2" d="M2103.55,2015v40.7H2072.9V1948h53.38c25.36,0,37.64,13.57,37.64,29.82,0,14.87-8.7,22.48-16.17,25.55,6.79,2.37,14,9.55,14,27.79v4.49c0,6.7.21,15.39,1.4,20.06h-30.08c-1.82-4.64-2.29-12.45-2.29-23.52v-2.78c0-9.3-2.22-14.4-16.15-14.4Zm0-22h14.6c10.51,0,14.34-4.37,14.34-11.61s-4.55-11.41-14.19-11.41h-14.75Z"/><path class="cls-2" d="M2497.24,2001.72c0,30.47-18.36,56-55.25,56-36.23,0-53.73-25.32-53.73-55.8,0-31,19.2-55.92,55.35-55.92C2477.56,1946,2497.24,1969.5,2497.24,2001.72Zm-76.44-.32c0,19.77,6.57,33.53,22.19,33.53,16.41,0,21.81-14.6,21.81-33,0-19.66-5.74-33.29-22.23-33.29C2427.24,1968.69,2420.8,1981.35,2420.8,2001.4Z"/></g></svg>